<svg xmlns="http://www.w3.org/2000/svg" viewBox="-443.9605712890625 -443.9606018066406 882.9212036132812 927.2957763671875" width="1000" height="1000">
<rect x="-443.9605712890625" y="-443.9606018066406" width="882.9212036132812" height="927.2957763671875" fill="white"/>
<polygon points="0.0,0.0 349.960693359375,0.0 247.45956420898438,-247.45956420898438" fill="none" stroke="#999" stroke-width="0.65"/>
<polygon points="253.45950317382812,-254.45953369140625 247.45956420898438,-247.45956420898438 358.96063232421875,4.888894409305067e-07" fill="none" stroke="black" stroke-width="0.65"/>
<polygon points="247.45956420898438,-247.45956420898438 349.960693359375,0.0 358.96063232421875,4.888894409305067e-07" fill="none" stroke="black" stroke-width="0.65"/>
<polygon points="0.0,0.0 247.45956420898438,-247.45956420898438 0.0,-349.9606628417969" fill="none" stroke="#999" stroke-width="0.65"/>
<polygon points="0.0,-363.9606018066406 0.0,-349.9606628417969 253.45950317382812,-254.45953369140625" fill="none" stroke="black" stroke-width="0.65"/>
<polygon points="0.0,-349.9606628417969 247.45956420898438,-247.45956420898438 253.45950317382812,-254.45953369140625" fill="none" stroke="black" stroke-width="0.65"/>
<polygon points="0.0,0.0 0.0,-349.9606628417969 -247.45953369140625,-247.45953369140625" fill="none" stroke="#999" stroke-width="0.65"/>
<polygon points="-259.45947265625,-259.45947265625 -247.45953369140625,-247.45953369140625 0.0,-363.9606018066406" fill="none" stroke="black" stroke-width="0.65"/>
<polygon points="-247.45953369140625,-247.45953369140625 0.0,-349.9606628417969 0.0,-363.9606018066406" fill="none" stroke="black" stroke-width="0.65"/>
<polygon points="358.96063232421875,4.888894409305067e-07 349.960693359375,0.0 221.5944366455078,336.0848693847656" fill="none" stroke="black" stroke-width="0.65"/>
<polygon points="349.960693359375,0.0 216.594482421875,329.08489990234375 221.5944366455078,336.0848693847656" fill="none" stroke="black" stroke-width="0.65"/>
<polygon points="0.0,0.0 -247.45953369140625,-247.45953369140625 -349.9606628417969,0.0" fill="none" stroke="#999" stroke-width="0.65"/>
<polygon points="-363.9605712890625,-4.888894409305067e-07 -349.9606628417969,0.0 -259.45947265625,-259.45947265625" fill="none" stroke="black" stroke-width="0.65"/>
<polygon points="-349.9606628417969,0.0 -247.45953369140625,-247.45953369140625 -259.45947265625,-259.45947265625" fill="none" stroke="black" stroke-width="0.65"/>
<polygon points="0.0,0.0 -349.9606628417969,0.0 -247.45953369140625,247.45953369140625" fill="none" stroke="#999" stroke-width="0.65"/>
<polygon points="-252.45953369140625,255.45948791503906 -247.45953369140625,247.45953369140625 -363.9605712890625,-4.888894409305067e-07" fill="none" stroke="black" stroke-width="0.65"/>
<polygon points="-247.45953369140625,247.45953369140625 -349.9606628417969,0.0 -363.9605712890625,-4.888894409305067e-07" fill="none" stroke="black" stroke-width="0.65"/>
<polygon points="-252.45953369140625,255.45948791503906 -252.45953369140625,255.45948791503906 71.86488342285156,403.3351745605469" fill="none" stroke="black" stroke-width="0.65"/>
<polygon points="-252.45953369140625,255.45948791503906 71.86488342285156,403.3351745605469 71.86488342285156,403.3351745605469" fill="none" stroke="black" stroke-width="0.65"/>
<polygon points="0.0,0.0 -247.45953369140625,247.45953369140625 70.86488342285156,392.335205078125" fill="none" stroke="#999" stroke-width="0.65"/>
<polygon points="71.86488342285156,403.3351745605469 71.86488342285156,403.3351745605469 221.5944366455078,336.0848693847656" fill="none" stroke="black" stroke-width="0.65"/>
<polygon points="71.86488342285156,403.3351745605469 221.5944366455078,336.0848693847656 221.5944366455078,336.0848693847656" fill="none" stroke="black" stroke-width="0.65"/>
<polygon points="216.594482421875,329.08489990234375 349.960693359375,0.0 0.0,0.0" fill="none" stroke="#999" stroke-width="0.65"/>
<polygon points="0.0,0.0 70.86488342285156,392.335205078125 216.594482421875,329.08489990234375" fill="none" stroke="#999" stroke-width="0.65"/>
<polygon points="71.86488342285156,403.3351745605469 70.86488342285156,392.335205078125 -252.45953369140625,255.45948791503906" fill="none" stroke="black" stroke-width="0.65"/>
<polygon points="70.86488342285156,392.335205078125 -247.45953369140625,247.45953369140625 -252.45953369140625,255.45948791503906" fill="none" stroke="black" stroke-width="0.65"/>
<polygon points="-363.9605712890625,-4.888894409305067e-07 -363.9605712890625,-4.888894409305067e-07 -252.45953369140625,255.45948791503906" fill="none" stroke="black" stroke-width="0.65"/>
<polygon points="-363.9605712890625,-4.888894409305067e-07 -252.45953369140625,255.45948791503906 -252.45953369140625,255.45948791503906" fill="none" stroke="black" stroke-width="0.65"/>
<polygon points="-259.45947265625,-259.45947265625 -259.45947265625,-259.45947265625 -363.9605712890625,-4.888894409305067e-07" fill="none" stroke="black" stroke-width="0.65"/>
<polygon points="-259.45947265625,-259.45947265625 -363.9605712890625,-4.888894409305067e-07 -363.9605712890625,-4.888894409305067e-07" fill="none" stroke="black" stroke-width="0.65"/>
<polygon points="0.0,-363.9606018066406 0.0,-363.9606018066406 -259.45947265625,-259.45947265625" fill="none" stroke="black" stroke-width="0.65"/>
<polygon points="0.0,-363.9606018066406 -259.45947265625,-259.45947265625 -259.45947265625,-259.45947265625" fill="none" stroke="black" stroke-width="0.65"/>
<polygon points="253.45950317382812,-254.45953369140625 253.45950317382812,-254.45953369140625 0.0,-363.9606018066406" fill="none" stroke="black" stroke-width="0.65"/>
<polygon points="253.45950317382812,-254.45953369140625 0.0,-363.9606018066406 0.0,-363.9606018066406" fill="none" stroke="black" stroke-width="0.65"/>
<polygon points="358.96063232421875,4.888894409305067e-07 358.96063232421875,4.888894409305067e-07 253.45950317382812,-254.45953369140625" fill="none" stroke="black" stroke-width="0.65"/>
<polygon points="358.96063232421875,4.888894409305067e-07 253.45950317382812,-254.45953369140625 253.45950317382812,-254.45953369140625" fill="none" stroke="black" stroke-width="0.65"/>
<polygon points="221.5944366455078,336.0848693847656 221.5944366455078,336.0848693847656 358.96063232421875,4.888894409305067e-07" fill="none" stroke="black" stroke-width="0.65"/>
<polygon points="221.5944366455078,336.0848693847656 358.96063232421875,4.888894409305067e-07 358.96063232421875,4.888894409305067e-07" fill="none" stroke="black" stroke-width="0.65"/>
<polygon points="221.5944366455078,336.0848693847656 216.594482421875,329.08489990234375 71.86488342285156,403.3351745605469" fill="none" stroke="black" stroke-width="0.65"/>
<polygon points="216.594482421875,329.08489990234375 70.86488342285156,392.335205078125 71.86488342285156,403.3351745605469" fill="none" stroke="black" stroke-width="0.65"/>
<circle cx="0.0" cy="0.0" r="65" fill="#b6d9f4" fill-opacity="0.94" stroke="#17324d" stroke-width="2.5"/>
<text x="0.0" y="0.0" text-anchor="middle" dominant-baseline="central" font-family="Arial, sans-serif" font-size="54" font-weight="bold" fill="#102538">1</text>
</svg>